# xmcd
#
# Track frame offsets:
#	150
#	18664
#	40700
#	58031
#	75628
#	91940
#	124343
#	147892
#	166732
#	188705
#	221533
#	235412
#	251225
#
# Disc length: 3584 seconds
#
# Revision: 0
# Processed by: cddbd v1.5.1PL2 Copyright (c) Steve Scherf et al.
# Submitted via: EasyCDDAExtractor 9.0.0.1
#
DISCID=b00dfe0d
DTITLE=the shady band - Live at MVM
DYEAR=2005
DGENRE=
TTITLE0=Rouge Crew
TTITLE1=Cruel World
TTITLE2=Release
TTITLE3=What I've Felt
TTITLE4=Low
TTITLE5=Will Fall
TTITLE6=SAS
TTITLE7=What I've Felt
TTITLE8=Cruel World
TTITLE9=Will Fall
TTITLE10=AC/DC
TTITLE11=Low
TTITLE12=Time
EXTD=
EXTT0=
EXTT1=
EXTT2=
EXTT3=
EXTT4=
EXTT5=
EXTT6=
EXTT7=
EXTT8=
EXTT9=
EXTT10=
EXTT11=
EXTT12=
PLAYORDER=
